<svg xmlns="http://www.w3.org/2000/svg" version="1.0" width="200" height="200" viewBox="0 0 745 745" preserveAspectRatio="xMidYMid meet">
<style xmlns="http://www.w3.org/2000/svg" type="text/css">
	.st1{animation: scale 3s infinite linear;}
	.st2{animation: rotate 3s infinite linear;}
	.st3{animation: scale1 3s infinite linear;}
	@keyframes scale {0% {transform: scale(0.95);} 50% {transform: scale(1)} 100%{transform:scale(0.95)}}
	@keyframes scale1 {0% {transform: scale(1);} 50% {transform: scale(0.95)} 100%{transform:scale(1)}}
	@keyframes rotate {0% {transform: rotate(0deg)} 50% {transform: rotate(4deg)} 100%{transform: rotate(0deg)}}
</style>
<g transform="translate(0.000000,745.000000) scale(0.100000,-0.100000)" stroke="none">
<path class="st1" d="M4470 7125 c-16 -17 -49 -109 -110 -310 -49 -158 -90 -288 -92 -290 -1 -2 -124 -40 -273 -85 -148 -45 -282 -89 -297 -96 -31 -16 -58 -61 -58 -96 0 -35 36 -87 72 -103 18 -8 151 -47 296 -86 l262 -72 25 -81 c13 -45 49 -166 80 -271 68 -233 81 -260 143 -285 38 -16 106 19 130 67 11 21 54 157 97 303 l78 266 266 73 c146 41 278 80 292 87 31 16 57 53 66 94 7 40 -30 95 -77 114 -20 8 -153 49 -295 91 -143 42 -262 79 -264 80 -2 2 -30 100 -62 217 -99 356 -99 357 -131 383 -42 35 -115 35 -148 0z" fill="#a3adba"/>
<path class="st2" d="M2970 5571 c0 -7 -31 -11 -87 -11 -256 0 -604 -67 -894 -170 -562 -200 -1086 -654 -1391 -1205 -219 -394 -340 -867 -341 -1320 0 -391 86 -786 253 -1153 216 -478 631 -928 1110 -1203 430 -247 1010 -383 1488 -349 498 36 917 168 1303 410 197 124 429 317 475 395 53 92 18 235 -74 299 -52 37 -127 44 -270 26 -53 -7 -167 -12 -252 -11 -416 1 -812 116 -1128 326 -427 284 -733 713 -856 1203 -52 204 -69 335 -69 532 0 401 99 739 328 1114 88 144 154 229 283 360 121 123 204 189 365 291 138 87 172 132 172 229 0 114 -59 190 -169 221 -69 19 -246 30 -246 16z" fill="#e6dede"/>
<path class="st3" d="M6076 5565 c-49 -17 -94 -60 -116 -110 -10 -22 -66 -218 -125 -435 -59 -217 -109 -397 -111 -399 -2 -2 -190 -55 -418 -117 -228 -62 -423 -117 -434 -123 -61 -33 -110 -129 -98 -193 8 -41 64 -111 103 -127 15 -6 211 -65 436 -130 224 -65 409 -120 411 -122 2 -2 52 -182 111 -399 59 -217 114 -411 122 -430 31 -75 85 -110 171 -110 71 0 116 26 148 85 12 22 74 222 139 445 64 223 118 407 120 408 2 2 193 59 424 126 231 68 431 130 446 140 101 66 90 250 -17 307 -11 6 -207 62 -435 124 -228 62 -416 115 -418 117 -2 1 -53 176 -114 388 -62 212 -119 404 -127 428 -38 104 -131 159 -218 127z" fill="#a3adba"/>
</g>
</svg>